<?xml version="1.0" encoding="UTF-8"?>
<svg version="1.1" xmlns="http://www.w3.org/2000/svg" width="512" height="512">
<path d="M0 0 C0.71544983 -0.00287018 1.43089966 -0.00574036 2.16802979 -0.00869751 C3.66720378 -0.01072469 5.16640505 -0.00528976 6.66552734 0.00732422 C8.9612075 0.02349443 11.25515277 0.00738292 13.55078125 -0.01171875 C15.01302471 -0.00973793 16.47526709 -0.0058976 17.9375 0 C18.62189148 -0.00607269 19.30628296 -0.01214539 20.01141357 -0.0184021 C22.88301703 0.02417006 24.76402785 0.08203416 27.13232422 1.78857422 C28.54764899 3.91640175 28.60354229 5.35670888 28.578125 7.8984375 C28.58972656 9.05859375 28.58972656 9.05859375 28.6015625 10.2421875 C28.09493832 12.98391837 27.40836453 13.71266884 25.203125 15.3984375 C22.6628418 15.79907227 22.6628418 15.79907227 19.65234375 15.83984375 C18.01555664 15.87948242 18.01555664 15.87948242 16.34570312 15.91992188 C15.20552734 15.93345703 14.06535156 15.94699219 12.890625 15.9609375 C10.64438731 15.99557395 8.39825684 16.03828954 6.15234375 16.08984375 C5.15549561 16.10217041 4.15864746 16.11449707 3.1315918 16.12719727 C-3.15520888 16.70949285 -6.6555972 18.66554859 -10.796875 23.3984375 C-14.98150295 31.76769341 -12.43725195 42.04823821 -12.796875 51.3984375 C74.323125 51.3984375 161.443125 51.3984375 251.203125 51.3984375 C252.21831827 28.6763743 252.21831827 28.6763743 246.203125 19.3984375 C239.46284205 14.2804128 227.85745338 15.99036855 219.79736328 16.02954102 C218.03737657 16.02707026 216.27739133 16.02322906 214.51741028 16.01812744 C210.74261681 16.00981905 206.96797436 16.01057145 203.19318008 16.01831245 C197.22668767 16.02992614 191.26038839 16.01770931 185.29391479 16.00169373 C170.48332867 15.96556112 155.67274779 15.95927532 140.86212158 15.96179199 C129.33343226 15.96350142 117.80490126 15.95645312 106.27625644 15.92181343 C100.34181365 15.904989 94.40775691 15.90683873 88.47331548 15.92263615 C84.79002632 15.92841583 81.10692204 15.91772535 77.423666 15.90238953 C75.71238356 15.8986508 74.00107051 15.90180724 72.2898159 15.91226006 C69.95902566 15.92555256 67.62959303 15.91449072 65.29885864 15.89723206 C63.99330584 15.89744134 62.68775303 15.89765062 61.34263802 15.89786625 C58.203125 15.3984375 58.203125 15.3984375 56.28307915 13.58601284 C54.69712477 10.37347396 54.82501794 7.92743671 55.203125 4.3984375 C56.26409721 2.21143341 56.26409721 2.21143341 58.203125 0.3984375 C60.80781236 -0.00319417 62.9956869 -0.14213345 65.60256958 -0.10949707 C66.74232579 -0.11885701 66.74232579 -0.11885701 67.90510738 -0.12840605 C70.45934915 -0.14440114 73.01264515 -0.13170662 75.56689453 -0.11914062 C77.39508116 -0.12455914 79.22326342 -0.13168027 81.05143738 -0.14038086 C86.02495425 -0.15865707 90.99814015 -0.15152695 95.971663 -0.13886452 C101.17650157 -0.12874987 106.38131146 -0.13812678 111.58615112 -0.14440918 C120.33417858 -0.15169395 129.08207114 -0.14208019 137.83007812 -0.12304688 C147.93375032 -0.10131734 158.03709916 -0.10829765 168.1407634 -0.1303525 C176.81692932 -0.1485316 185.49299811 -0.15105131 194.16917694 -0.14059782 C199.35004269 -0.13437144 204.53075678 -0.13350291 209.7116127 -0.14674377 C214.58888345 -0.15833666 219.46573988 -0.15021375 224.34296608 -0.12716675 C226.12911988 -0.12189624 227.9153088 -0.12336491 229.70144844 -0.13221741 C241.33056437 -0.18451897 250.68186406 0.4403432 259.6328125 8.62109375 C265.72538729 15.51691844 267.34967542 22.36190361 267.36134338 31.32037354 C267.36628136 32.1241675 267.37121934 32.92796146 267.37630695 33.75611281 C267.39167794 36.45231532 267.40004151 39.14849401 267.40844727 41.84472656 C267.4180261 43.77632863 267.42803619 45.7079286 267.43844604 47.63952637 C267.46550057 52.88704263 267.4865072 58.13456789 267.50644803 63.38211536 C267.52830418 68.86476599 267.55569469 74.34738885 267.58250427 79.83001709 C267.63243616 90.21383031 267.67737317 100.59765893 267.72052664 110.98150229 C267.76989475 122.80242838 267.82481447 134.62332663 267.88020623 146.44422579 C267.9940339 170.76227038 268.10087125 195.08034168 268.203125 219.3984375 C268.79770508 218.84921631 269.39228516 218.29999512 270.00488281 217.73413086 C270.79733398 217.01362549 271.58978516 216.29312012 272.40625 215.55078125 C273.18645508 214.83656006 273.96666016 214.12233887 274.77050781 213.38647461 C282.56252093 207.01851366 291.44950483 205.88027643 301.203125 206.3984375 C302.87575274 206.70043973 304.54490727 207.02533851 306.203125 207.3984375 C306.53183594 206.6971875 306.86054688 205.9959375 307.19921875 205.2734375 C312.39633906 194.90736555 319.13423646 188.17539552 330.203125 184.3984375 C336.94911268 182.32274898 344.73273291 182.67406188 351.203125 185.3984375 C351.31398438 184.66496094 351.42484375 183.93148437 351.5390625 183.17578125 C353.27703388 175.90697153 358.97996524 169.36630487 365.203125 165.3984375 C374.38740038 160.45187308 385.0344705 159.86912454 395.1328125 162.0234375 C409.24569533 166.94755861 414.8301592 178.97185276 421.203125 191.3984375 C421.82764427 192.60482553 422.45284552 193.81086067 423.07861328 195.01660156 C425.83556002 200.32879178 428.59083034 205.641749 431.31860352 210.96899414 C431.97020157 212.24105498 432.62181284 213.51310904 433.2734375 214.78515625 C433.59534561 215.41412811 433.91725372 216.04309998 434.24891663 216.69113159 C436.22233866 220.53318292 438.24519302 224.34453928 440.3024292 228.14230347 C455.00536426 255.33157818 464.46758994 284.65305099 472.3605957 314.43310547 C474.54738761 322.51060662 477.23161534 329.99071923 480.85546875 337.52734375 C485.31971484 347.0381289 484.67141894 361.19164016 481.578125 371.0234375 C476.44705205 383.7881067 468.82957761 393.4921795 456.203125 399.3984375 C452.828125 400.0234375 452.828125 400.0234375 450.203125 399.3984375 C447.57995833 397.48423479 446.45476164 396.03591698 445.265625 393.0234375 C445.17481781 389.20953537 446.0148088 387.55218732 448.203125 384.3984375 C449.6063774 383.39062218 451.04876854 382.43620316 452.515625 381.5234375 C458.82492023 377.58397512 463.383506 371.98067902 465.73046875 364.85546875 C467.65052161 354.87436751 466.4862854 346.42887784 462.203125 337.3984375 C458.33460489 328.11175955 455.41520272 318.76140391 452.890625 309.0234375 C442.94513556 270.95536 425.94951032 236.05490269 407.36328125 201.55224609 C406.56780144 200.07545257 405.77633557 198.59649193 404.98828125 197.11572266 C403.80109918 194.8907045 402.59851469 192.67476926 401.390625 190.4609375 C401.04153076 189.80383789 400.69243652 189.14673828 400.33276367 188.46972656 C397.74140678 183.79231193 395.01098436 180.6230331 390.0625 178.46484375 C384.08974354 177.0380186 379.67960845 177.55364941 374.203125 180.3984375 C369.91001183 183.7582652 367.84197691 187.20873979 366.203125 192.3984375 C366.60355268 196.76869256 367.79663787 200.02423006 369.85546875 203.875 C370.64920898 205.37546875 370.64920898 205.37546875 371.45898438 206.90625 C372.01392578 207.93492187 372.56886719 208.96359375 373.140625 210.0234375 C374.23312216 212.07809882 375.32557198 214.1327853 376.41796875 216.1875 C376.90386475 217.09193848 377.38976074 217.99637695 377.89038086 218.92822266 C378.32358643 219.74339355 378.75679199 220.55856445 379.203125 221.3984375 C379.59443604 222.10274902 379.98574707 222.80706055 380.38891602 223.53271484 C381.6436785 226.4079457 381.02200897 228.437857 380.203125 231.3984375 C378.44448541 234.23180128 377.099163 234.42731583 373.828125 235.3359375 C369.30304643 235.4139561 368.40948788 234.48412065 365.203125 231.3984375 C363.4296875 228.51342773 363.4296875 228.51342773 361.828125 225.20703125 C361.22919996 224.00323864 360.6302406 222.79946311 360.03125 221.59570312 C359.11266066 219.71254581 358.19887484 217.8271438 357.28710938 215.94067383 C356.3956218 214.10687244 355.48757548 212.28197409 354.578125 210.45703125 C354.04960937 209.36704834 353.52109375 208.27706543 352.9765625 207.15405273 C350.17906437 202.80722435 347.33918962 201.65917364 342.390625 200.5234375 C337.82181501 200.10965848 334.18550354 201.17273986 330.203125 203.3984375 C325.74595988 207.17733836 323.56399693 209.93101239 322.72265625 215.68359375 C322.78152625 222.44141137 326.98387349 228.28557694 330.203125 234.0234375 C331.21039315 235.82937368 332.21213445 237.6374944 333.19897461 239.4546814 C334.09240741 241.09877033 335.00467508 242.73258296 335.91796875 244.36572266 C337.31777274 247.66898353 337.53009332 249.84894488 337.203125 253.3984375 C336.203125 255.7109375 336.203125 255.7109375 334.203125 257.3984375 C331.4643712 258.37063582 329.07225335 258.95019295 326.203125 258.3984375 C319.45647197 253.4755066 316.62525717 244.69757651 313.10742188 237.39257812 C309.24222834 229.34802475 309.24222834 229.34802475 302.203125 224.3984375 C298.34033614 223.1241154 294.77046963 222.82240486 290.91796875 224.23828125 C289.53286348 224.9446598 288.16765937 225.69230086 286.83203125 226.48828125 C285.203125 227.3984375 285.203125 227.3984375 283.203125 227.3984375 C282.77 228.2646875 282.77 228.2646875 282.328125 229.1484375 C281.63556519 230.53355711 280.919548 231.90758105 280.16601562 233.26049805 C278.35227636 237.28760626 278.49005574 241.08860599 279.203125 245.3984375 C280.99674751 249.84465062 283.31366413 253.93542907 285.703125 258.0859375 C293.25351435 271.34228638 293.25351435 271.34228638 292.203125 277.3984375 C290.703125 279.8359375 290.703125 279.8359375 288.203125 281.3984375 C283.22071239 282.36277543 283.22071239 282.36277543 280.203125 281.3984375 C275.506898 276.804858 272.49587059 270.57291123 269.59375 264.75390625 C269.18203552 263.94464188 268.77032104 263.1353775 268.34613037 262.30158997 C267.04123658 259.73329146 265.74678358 257.15991047 264.453125 254.5859375 C262.75252584 251.2239788 261.04797028 247.86403045 259.34375 244.50390625 C258.92178345 243.67007416 258.49981689 242.83624207 258.06506348 241.97714233 C253.89279975 233.74753987 249.59215824 225.58747505 245.27722168 217.43203735 C242.89986005 212.93095068 240.55354916 208.41362631 238.203125 203.8984375 C236.68418804 200.98594002 235.16466915 198.07374678 233.64501953 195.16162109 C232.7212102 193.39127331 231.79768164 191.62077896 230.87451172 189.85009766 C228.00675585 184.35402533 225.11468596 178.87142103 222.203125 173.3984375 C221.50026367 172.07126709 221.50026367 172.07126709 220.78320312 170.71728516 C219.32909982 167.9804619 217.86169779 165.25117067 216.390625 162.5234375 C215.9464624 161.68466064 215.5022998 160.84588379 215.04467773 159.98168945 C212.24930517 154.84133618 209.5283776 149.97449977 204.02734375 147.3671875 C198.32556174 146.11633953 194.29304923 146.41353664 189.203125 149.3984375 C184.76379006 153.04855734 182.01840506 156.78495045 180.7421875 162.44140625 C180.17329007 168.2971264 182.04568929 172.64124883 184.72265625 177.73046875 C185.07997833 178.42665817 185.43730042 179.1228476 185.80545044 179.84013367 C186.55670908 181.30181655 187.31171446 182.76157924 188.07028198 184.21948242 C189.15365151 186.30327823 190.22566599 188.39243674 191.29321289 190.484375 C193.37733693 194.56551549 195.47622483 198.63892948 197.578125 202.7109375 C197.94951599 203.43098969 198.32090698 204.15104187 198.70355225 204.89291382 C205.53369239 218.13346585 212.39873808 231.35246206 219.47265625 244.46484375 C227.76017305 259.84084195 235.83525549 275.3111246 243.76928711 290.87255859 C244.54134029 292.38517467 245.31355212 293.89770978 246.0859375 295.41015625 C246.45113998 296.12617004 246.81634247 296.84218384 247.19261169 297.57989502 C249.47044638 302.02685112 251.82917061 306.41155214 254.36035156 310.72094727 C255.75660414 313.5001047 255.8866894 315.39075415 255.203125 318.3984375 C253.078125 321.2734375 253.078125 321.2734375 250.203125 323.3984375 C244.51368024 324.22093218 240.66581472 321.98387984 235.8046875 319.3828125 C235.01089691 318.97057434 234.21710632 318.55833618 233.39926147 318.13360596 C230.8694085 316.81659746 228.34876531 315.48297919 225.828125 314.1484375 C224.14121864 313.2657916 222.45372381 312.38426941 220.765625 311.50390625 C217.64419039 309.87518846 214.52692752 308.23893358 211.41259766 306.59667969 C208.55897172 305.10199596 205.70277837 303.61284869 202.83398438 302.14746094 C201.88549622 301.6613736 201.88549622 301.6613736 200.91784668 301.16546631 C197.09383284 299.45490954 193.2555091 299.74460746 189.203125 300.3984375 C183.78272349 302.85295894 180.34291268 306.89351363 178.203125 312.3984375 C177.44715714 317.49052291 177.42037583 321.80032462 179.703125 326.4609375 C180.198125 327.1003125 180.693125 327.7396875 181.203125 328.3984375 C181.203125 329.0584375 181.203125 329.7184375 181.203125 330.3984375 C183.98450972 331.79374978 186.77399165 333.17101573 189.5703125 334.53613281 C190.87431 335.17312355 190.87431 335.17312355 192.20465088 335.82298279 C193.15289734 336.28616409 194.1011438 336.7493454 195.078125 337.2265625 C219.75674866 349.29323613 244.39404531 361.43878116 268.96722412 373.71879578 C270.94514519 374.70695084 272.92345286 375.69432801 274.90185547 376.68151855 C278.62345224 378.53883036 282.34313117 380.39994924 286.0625 382.26171875 C287.16035828 382.80965591 288.25821655 383.35759308 289.38934326 383.9221344 C303.55406954 391.02586704 314.27352017 397.23541993 322.765625 411.0234375 C326.75370591 417.49229315 330.40525468 422.6246665 337.203125 426.3984375 C337.79996094 426.75035156 338.39679688 427.10226562 339.01171875 427.46484375 C346.04248992 430.83658992 355.5331839 430.96368004 362.85595703 428.50927734 C371.02418335 425.21995831 378.79614752 421.12202786 386.578125 417.0234375 C387.8018286 416.38232605 389.02578648 415.74169971 390.25 415.1015625 C390.85539612 414.78491638 391.46079224 414.46827026 392.08453369 414.14202881 C393.90323123 413.19315105 395.72444709 412.24924261 397.54589844 411.30566406 C400.05364187 410.00570837 402.54207677 408.67492004 405.02441406 407.32714844 C406.26343328 406.67077338 407.5026831 406.01483339 408.7421875 405.359375 C409.83998535 404.76688965 410.9377832 404.1744043 412.06884766 403.56396484 C415.66761372 402.22571051 417.54903336 402.33909943 421.203125 403.3984375 C423.96118731 405.78875817 424.18468372 407.25090729 424.640625 410.8984375 C424.12091763 415.05609648 423.30037663 415.7362927 420.203125 418.3984375 C418.00268555 419.76367188 418.00268555 419.76367188 415.58984375 420.9921875 C414.68234375 421.45955322 413.77484375 421.92691895 412.83984375 422.40844727 C411.86660156 422.90014404 410.89335937 423.39184082 409.890625 423.8984375 C407.82145211 424.95931858 405.7524467 426.02052638 403.68359375 427.08203125 C402.61802246 427.62585449 401.55245117 428.16967773 400.45458984 428.72998047 C397.23191381 430.38366481 394.0222256 432.05998978 390.81640625 433.74609375 C389.79135986 434.28492188 388.76631348 434.82375 387.71020508 435.37890625 C385.74978926 436.4102852 383.78996177 437.44278343 381.83081055 438.4765625 C367.51609532 445.97615315 353.28539943 449.33609022 337.265625 444.8359375 C323.04110338 439.74165737 314.32658536 431.05609056 307.01733398 418.26000977 C306.62489502 417.59283936 306.23245605 416.92566895 305.828125 416.23828125 C305.49039062 415.64394287 305.15265625 415.04960449 304.8046875 414.43725586 C298.79193101 406.78290686 290.29934643 403.14847982 281.765625 399.0234375 C280.44810623 398.37724213 279.13104458 397.73011388 277.81445312 397.08203125 C274.61587538 395.51004364 271.41129721 393.95076862 268.203125 392.3984375 C268.19947937 393.59145477 268.19583374 394.78447205 268.19207764 396.01364136 C268.15505893 407.28325515 268.09721097 418.55259744 268.01922226 429.82200432 C267.97979456 435.61507132 267.94758286 441.40798738 267.93212891 447.20117188 C267.91693153 452.79698484 267.88243078 458.3923827 267.83481598 463.98801041 C267.82003402 466.11768094 267.81208582 468.24741075 267.81124115 470.37713242 C267.80886018 473.37149524 267.78168926 476.36472135 267.74902344 479.35888672 C267.7540538 480.2299556 267.75908417 481.10102448 267.76426697 481.99848938 C267.62006111 490.60058013 264.89159385 498.48890989 258.984375 504.86328125 C253.87556968 509.26626479 247.7231975 512.51870897 240.92075062 512.52986526 C240.04189538 512.53370641 239.16304014 512.53754755 238.25755292 512.5415051 C237.29122943 512.54063862 236.32490595 512.53977213 235.32929993 512.53887939 C233.79033901 512.54333608 233.79033901 512.54333608 232.22028798 512.5478828 C228.76574698 512.5565879 225.31124056 512.55807958 221.85668945 512.55957031 C219.38649928 512.56419724 216.91630983 512.56922173 214.44612122 512.57461548 C207.72283431 512.58775439 200.99956099 512.59422407 194.27626443 512.59862614 C190.07755358 512.60138869 185.87884502 512.60562611 181.68013573 512.61013031 C170.05378139 512.62232414 158.4274289 512.63262264 146.80106831 512.6360054 C146.05684813 512.63622497 145.31262795 512.63644453 144.54585565 512.63667075 C143.42685727 512.63699817 143.42685727 512.63699817 142.28525287 512.6373322 C140.77358329 512.63777567 139.26191372 512.63822223 137.75024414 512.63867188 C137.00040421 512.6388933 136.25056427 512.63911473 135.47800191 512.63934287 C123.3329662 512.6432893 111.18799055 512.66073806 99.04297803 512.6840314 C86.57202517 512.70775661 74.10110244 512.72020782 61.63012666 512.72137332 C54.62893192 512.72228952 47.6278154 512.72802776 40.62664223 512.74619293 C34.03981905 512.76322278 27.453118 512.76483775 20.86627007 512.75605392 C18.44917529 512.75528256 16.0320726 512.75963924 13.61499786 512.76951218 C10.31377748 512.78220517 7.01308498 512.77636877 3.71186829 512.76593018 C2.75669841 512.77398658 1.80152853 512.78204298 0.8174141 512.79034352 C-7.01485174 512.73247408 -13.45352055 511.17564043 -19.484375 505.8359375 C-20.18949219 505.23652344 -20.89460938 504.63710938 -21.62109375 504.01953125 C-29.78757608 494.18163243 -29.51055422 484.60286171 -29.43179321 472.42016602 C-29.43755854 470.47999879 -29.44550241 468.53983702 -29.45542943 466.59968662 C-29.47626935 461.28269719 -29.46600038 455.96615746 -29.45049834 450.64916658 C-29.43917717 444.90946208 -29.45665138 439.16983445 -29.47039795 433.43014526 C-29.4926266 422.19180409 -29.48783075 410.95362991 -29.47333474 399.7152822 C-29.46204108 390.58134322 -29.46051217 381.44745104 -29.46595383 372.31350708 C-29.46671999 371.01332943 -29.46748616 369.71315177 -29.46827554 368.37357479 C-29.46987417 365.73225743 -29.47149524 363.09094008 -29.4731385 360.44962275 C-29.48698854 336.39011837 -29.47262752 312.33070176 -29.44642551 288.27121164 C-29.42269821 266.31715223 -29.42482138 244.36323783 -29.44873047 222.40917969 C-29.47551533 197.73213223 -29.48602163 173.05516826 -29.47066915 148.37810802 C-29.46907641 145.746528 -29.46750456 143.11494797 -29.46595383 140.48336792 C-29.46518245 139.18859309 -29.46441107 137.89381827 -29.46361632 136.55980784 C-29.45929989 127.43724181 -29.46658468 118.31472725 -29.47835159 109.19216919 C-29.49237711 98.0742197 -29.48857534 86.95644671 -29.46194787 75.83851743 C-29.44881062 70.16636393 -29.4436561 64.49450466 -29.46019363 58.82235336 C-29.47510758 53.62850283 -29.4668806 48.4352189 -29.44030587 43.24141967 C-29.43472711 41.36403521 -29.43754774 39.48660275 -29.44968481 37.60924923 C-29.51693964 26.34069373 -29.17143835 17.77004882 -21.5859375 8.77734375 C-20.87179688 8.17792969 -20.15765625 7.57851562 -19.421875 6.9609375 C-18.71289062 6.34347656 -18.00390625 5.72601562 -17.2734375 5.08984375 C-11.64205132 1.2438024 -6.76857362 -0.06077747 0 0 Z M-12.796875 67.3984375 C-12.796875 181.2484375 -12.796875 295.0984375 -12.796875 412.3984375 C74.323125 412.3984375 161.443125 412.3984375 251.203125 412.3984375 C251.203125 402.8284375 251.203125 393.2584375 251.203125 383.3984375 C242.72874202 379.13929165 234.24231455 374.91306106 225.70703125 370.77734375 C224.89559662 370.38388763 224.08416199 369.99043152 223.24813843 369.58505249 C219.92279219 367.97329441 216.59704967 366.36237942 213.26928711 364.75561523 C210.78882741 363.55733845 208.31013657 362.35548117 205.83203125 361.15234375 C205.02955963 360.76446686 204.22708801 360.37658997 203.40029907 359.97695923 C199.32099436 357.98818138 195.30329746 355.92967904 191.33544922 353.72607422 C190.55991196 353.2984227 189.78437469 352.87077118 188.9853363 352.43016052 C187.51670895 351.61316544 186.05560909 350.78244114 184.60365295 349.93617249 C180.93138473 347.75870042 180.93138473 347.75870042 176.86083984 348.05834961 C174.84471353 349.68817543 172.84982421 351.3247881 170.890625 353.0234375 C152.83542756 367.62690602 130.79964134 372.95469311 107.92749023 370.55078125 C86.775323 367.88910936 69.61275439 357.65262364 55.859375 341.67578125 C42.00224297 323.58156462 36.32359448 302.12729937 38.890625 279.6484375 C42.462861 257.51458304 53.11615165 237.93146695 71.46972656 224.56396484 C89.87483954 212.18847057 112.89304663 207.08772379 134.78125 211.1171875 C138.6746047 211.98064236 142.42320471 213.12871842 146.203125 214.3984375 C147.25628906 214.7490625 148.30945313 215.0996875 149.39453125 215.4609375 C168.06364167 222.47098157 183.68229599 237.35320262 192.12158203 255.35791016 C195.24527044 262.55735201 197.21487397 269.13357484 198.078125 276.9609375 C198.87228558 281.3596934 198.87228558 281.3596934 201.74414062 284.59765625 C205.72078792 286.81929306 209.95298808 288.26456587 214.26367188 289.69580078 C217.62540557 290.91370984 220.57304353 292.77753775 223.6015625 294.6484375 C224.13007813 294.8959375 224.65859375 295.1434375 225.203125 295.3984375 C225.863125 295.0684375 226.523125 294.7384375 227.203125 294.3984375 C224.53932262 289.19142118 221.8740358 283.98516807 219.20751953 278.77954102 C218.30544369 277.01801841 217.40373576 275.25630734 216.50244141 273.49438477 C210.50121413 261.76349413 204.42476187 250.07563814 198.2711792 238.42398071 C195.89847094 233.92418744 193.55210184 229.41064637 191.203125 224.8984375 C190.1915678 222.95955112 189.17984626 221.02075048 188.16796875 219.08203125 C186.70279014 216.27452913 185.23854299 213.46656769 183.77783203 210.65673828 C182.44332762 208.08994882 181.10486188 205.52526016 179.765625 202.9609375 C179.37697266 202.21070313 178.98832031 201.46046875 178.58789062 200.6875 C177.86746648 199.31135301 177.12918961 197.94430199 176.36786938 196.5903511 C175.203125 194.3984375 175.203125 194.3984375 174.39852619 192.27814865 C173.27291836 189.76407463 172.27719719 188.2323583 170.203125 186.3984375 C165.41352487 185.187894 160.62382177 185.36949987 155.7175293 185.46191406 C154.22239541 185.4608561 152.72726042 185.456223 151.23214722 185.44828796 C148.01556056 185.4388186 144.8004261 185.4544782 141.58402061 185.48966217 C136.49423097 185.54505553 131.40540916 185.54377986 126.31538391 185.53485107 C118.26060284 185.52734849 110.2064653 185.55709479 102.15182763 185.60307002 C87.73947463 185.6850336 73.32710606 185.72245332 58.91452342 185.71846175 C53.85940488 185.71877444 48.80502013 185.74131863 43.75007093 185.7819972 C40.59867941 185.80380019 37.44740048 185.80932921 34.2959404 185.81092262 C32.83989407 185.81516155 31.38384813 185.82627939 29.92791557 185.8449688 C21.97210178 185.94365396 15.90926169 185.93820858 9.203125 181.3984375 C3.88084785 174.92764172 4.60032199 166.87174258 4.63671875 158.8984375 C4.63147382 157.49413646 4.62519418 156.08983895 4.61793518 154.68554688 C4.60757193 151.75373664 4.61203356 148.82241302 4.62670898 145.890625 C4.64390336 142.15140852 4.62037488 138.41372791 4.58521938 134.67468262 C4.56315975 131.77821866 4.56470703 128.88211755 4.5729847 125.9855957 C4.57379932 124.60781162 4.56703009 123.22999958 4.55221367 121.85229492 C4.4878009 114.78096713 4.50941464 108.92031266 8.54554749 102.93164062 C13.34107547 98.49593948 18.43961049 97.9624806 24.70483398 98.01075745 C25.96799139 98.00267914 25.96799139 98.00267914 27.25666714 97.99443763 C30.0710008 97.98016012 32.88486397 97.98726123 35.69921875 97.99438477 C37.71990334 97.98868114 39.7405847 97.98171692 41.76126099 97.97358704 C47.24465119 97.95564102 52.72788151 97.9568266 58.21129227 97.96252942 C62.78901416 97.96561876 67.36670522 97.95953175 71.94442272 97.95349067 C82.74259694 97.93944271 93.54069204 97.94100941 104.33886719 97.95239258 C115.48044602 97.96387816 126.62178428 97.94979124 137.76333141 97.9229961 C147.32951396 97.90085071 156.89562092 97.894199 166.46182728 97.90007252 C172.17520217 97.90344556 177.88842278 97.90100365 183.60177612 97.88382149 C188.9731551 97.86837269 194.34417707 97.87228511 199.71554184 97.89112663 C201.68679612 97.89481802 203.65807674 97.8916881 205.62930679 97.88124084 C208.32042302 97.86806706 211.01035104 97.87954611 213.70141602 97.89723206 C214.4813816 97.88762705 215.26134718 97.87802204 216.06494808 97.86812598 C221.26168082 97.93839388 224.21101992 99.09851621 228.203125 102.3984375 C231.59597304 106.89166869 233.38831388 110.20549599 233.15454102 115.83691406 C233.12348267 116.73866364 233.09242432 117.64041321 233.0604248 118.56948853 C233.009245 120.03942764 233.009245 120.03942764 232.95703125 121.5390625 C232.34055102 149.05504562 234.05810671 169.59302266 250.203125 192.3984375 C250.533125 192.3984375 250.863125 192.3984375 251.203125 192.3984375 C251.203125 151.1484375 251.203125 109.8984375 251.203125 67.3984375 C164.083125 67.3984375 76.963125 67.3984375 -12.796875 67.3984375 Z M20.203125 113.3984375 C20.17999584 120.68265298 20.16220699 127.9668606 20.15131283 135.25110531 C20.14608525 138.63315563 20.13898989 142.0151809 20.12768555 145.3972168 C20.11478233 149.28173527 20.10989576 153.16624347 20.10546875 157.05078125 C20.10030746 158.27055161 20.09514618 159.49032196 20.08982849 160.74705505 C20.08975296 161.86814163 20.08967743 162.98922821 20.08959961 164.14428711 C20.087379 165.13690048 20.08515839 166.12951385 20.08287048 167.15220642 C19.95062558 169.36870275 19.95062558 169.36870275 21.203125 170.3984375 C23.03806986 170.49489778 24.87677087 170.52031094 26.71424866 170.51869202 C27.9104332 170.52006668 29.10661774 170.52144135 30.33905029 170.52285767 C31.67663599 170.51931807 33.01422144 170.51568325 34.35180664 170.51196289 C35.75095111 170.51168102 37.15009573 170.51183875 38.54924011 170.5124054 C42.35898959 170.51269338 46.16870786 170.50679648 49.97845006 170.49983144 C53.95563809 170.49359809 57.93282676 170.49299412 61.91001892 170.49180603 C69.44651039 170.48869266 76.98298743 170.48047919 84.51947254 170.47045654 C93.09732328 170.45929558 101.6751747 170.453785 110.2530309 170.44876111 C127.90307046 170.43829658 145.55309657 170.42069703 163.203125 170.3984375 C163.31994629 169.30942139 163.43676758 168.22040527 163.55712891 167.09838867 C163.72253824 165.65017714 163.88841596 164.20201905 164.0546875 162.75390625 C164.13017822 162.03843628 164.20566895 161.32296631 164.28344727 160.58581543 C165.00380792 154.44869405 166.84612567 149.614698 170.203125 144.3984375 C170.76 143.4909375 171.316875 142.5834375 171.890625 141.6484375 C180.37003639 133.39819939 189.88795747 130.94153116 201.421875 131.06640625 C206.58663021 131.51992298 210.61052969 133.11132504 215.203125 135.3984375 C216.193125 135.7284375 217.183125 136.0584375 218.203125 136.3984375 C218.23200012 132.75262063 218.24988085 129.10683287 218.265625 125.4609375 C218.27400391 124.42001953 218.28238281 123.37910156 218.29101562 122.30664062 C218.29423828 121.31728516 218.29746094 120.32792969 218.30078125 119.30859375 C218.30601807 118.39215088 218.31125488 117.47570801 218.31665039 116.53149414 C218.44233711 114.41480727 218.44233711 114.41480727 217.203125 113.3984375 C214.66116311 113.30068276 212.14639539 113.26848473 209.60398865 113.27818298 C208.79867441 113.27732856 207.99336017 113.27647413 207.16364247 113.27559382 C204.44427797 113.27393655 201.72497412 113.27946439 199.00561523 113.28491211 C197.06460573 113.28519395 195.12359611 113.2850363 193.18258667 113.2844696 C187.89561516 113.28418152 182.60866612 113.29007994 177.32169986 113.29704356 C171.80301447 113.30327536 166.28432862 113.30388076 160.76564026 113.30506897 C150.30733342 113.3081828 139.84903698 113.31639689 129.39073473 113.32641846 C117.48767459 113.33757799 105.58461397 113.34308964 93.68154991 113.34811389 C69.18873583 113.35857946 44.695931 113.3761799 20.203125 113.3984375 Z M69.9921875 246.703125 C58.03380728 260.67747736 52.10173534 278.44363109 53.453125 296.79296875 C55.89911135 315.2033839 64.57849824 330.53400659 78.6796875 342.5 C92.51214162 352.72790582 109.08916779 358.13109258 126.30859375 355.96484375 C142.09261762 353.50741698 154.25534104 346.77414462 166.203125 336.3984375 C165.78740234 335.51091797 165.78740234 335.51091797 165.36328125 334.60546875 C160.79986946 324.6504103 159.57854698 315.4199503 163.17578125 304.84375 C167.38927155 294.81468183 174.50082416 289.0260326 184.203125 284.3984375 C182.03564651 266.15279768 173.68123023 249.99885123 159.203125 238.3984375 C130.79217777 218.10727589 94.1535763 221.51722502 69.9921875 246.703125 Z M-12.796875 428.3984375 C-16.81749484 462.72133451 -16.81749484 462.72133451 -8.796875 493.3984375 C-4.55933074 496.47065709 -0.80383463 497.52082453 4.37149334 497.52986526 C5.61346132 497.53562698 5.61346132 497.53562698 6.88051957 497.5415051 C7.78488387 497.54063862 8.68924817 497.53977213 9.62101746 497.53887939 C11.06832173 497.54333608 11.06832173 497.54333608 12.54486448 497.5478828 C15.78667294 497.55657293 19.02844448 497.55807832 22.27026367 497.55957031 C24.5911975 497.56419829 26.91213057 497.56922292 29.23306274 497.57461548 C35.54521205 497.58774408 41.85735072 497.59418543 48.16951156 497.59862614 C52.11278346 497.60155632 56.05605245 497.60566105 59.99932289 497.61013031 C70.92229041 497.62223973 81.84525539 497.6326214 92.76822948 497.6360054 C93.81660847 497.63633475 93.81660847 497.63633475 94.88616683 497.63667075 C95.93702354 497.63699817 95.93702354 497.63699817 97.00910968 497.6373322 C98.42868054 497.63777566 99.8482514 497.63822223 101.26782227 497.63867188 C101.97197517 497.6388933 102.67612807 497.63911473 103.40161894 497.63934287 C114.80550004 497.64328893 126.20931717 497.66073734 137.61317357 497.6840314 C149.32818476 497.70776735 161.04316389 497.72020829 172.75819951 497.72137332 C179.33296447 497.72242146 185.90763921 497.72833133 192.48238182 497.74619293 C198.66869828 497.76267204 204.8548567 497.76482977 211.04118729 497.75605392 C213.30950786 497.75528345 215.57783693 497.75962759 217.84613609 497.76951218 C220.94771657 497.78223329 224.04873744 497.77635361 227.15031433 497.76593018 C228.04352503 497.77398658 228.93673572 497.78204298 229.8570134 497.79034352 C236.79056298 497.73601526 243.63478738 496.96677512 248.703125 491.8984375 C259.60172178 473.73410953 251.203125 449.58150201 251.203125 428.3984375 C164.083125 428.3984375 76.963125 428.3984375 -12.796875 428.3984375 Z " fill="#000000" transform="translate(28.796875,-0.3984375)"/>
<path d="M0 0 C1.10156937 -0.00960754 2.20313873 -0.01921509 3.33808899 -0.02911377 C5.12402718 -0.03548859 5.12402718 -0.03548859 6.94604492 -0.04199219 C8.78280037 -0.0505423 8.78280037 -0.0505423 10.65666199 -0.05926514 C13.24994034 -0.06871832 15.84323072 -0.07525038 18.43652344 -0.07910156 C22.40019747 -0.08880278 26.3633521 -0.11982241 30.3269043 -0.15136719 C32.84578142 -0.15789768 35.36466226 -0.16314797 37.88354492 -0.16699219 C39.66037407 -0.18551239 39.66037407 -0.18551239 41.47309875 -0.20440674 C48.24584313 -0.18611223 53.15974514 0.11281464 58.44213867 4.77441406 C62.98827092 10.20729189 65.08679776 14.78682893 64.86401367 22.08300781 C64.07969463 28.60265982 61.25882289 33.62188744 56.61401367 38.16113281 C50.32207514 41.71831916 44.47721547 41.59803212 37.36401367 41.55957031 C35.60589355 41.56387558 35.60589355 41.56387558 33.81225586 41.56826782 C31.34122228 41.57030371 28.87017241 41.56480724 26.39916992 41.55224609 C22.62666634 41.53618667 18.85523411 41.55211201 15.08276367 41.57128906 C12.67651132 41.56930655 10.27025963 41.5654627 7.86401367 41.55957031 C6.17937012 41.56867935 6.17937012 41.56867935 4.46069336 41.57797241 C-3.08224748 41.51055293 -8.15463075 40.80496919 -14.13598633 35.91113281 C-19.08319902 29.86453952 -19.96053486 24.79191717 -19.72973633 17.09863281 C-19.12535505 11.93392007 -17.54344151 8.1224557 -13.66723633 4.59863281 C-9.18373035 1.25500123 -5.63268999 0.03964645 0 0 Z M-4.38598633 19.16113281 C-4.11562486 22.13510897 -3.53152607 23.01559307 -1.38598633 25.16113281 C0.74131093 25.46676549 0.74131093 25.46676549 3.21557617 25.41992188 C4.16996582 25.4262262 5.12435547 25.43253052 6.10766602 25.43902588 C7.14101074 25.43497742 8.17435547 25.43092896 9.23901367 25.42675781 C10.82576904 25.42962799 10.82576904 25.42962799 12.44458008 25.43255615 C14.68400307 25.43391883 16.92343393 25.43021663 19.1628418 25.421875 C22.59987045 25.41117683 26.03637637 25.42176769 29.47338867 25.43457031 C31.64526483 25.43324873 33.81714066 25.43068637 35.98901367 25.42675781 C37.0223584 25.43080627 38.05570313 25.43485474 39.12036133 25.43902588 C40.5519458 25.4295694 40.5519458 25.4295694 42.01245117 25.41992188 C43.27581299 25.4175351 43.27581299 25.4175351 44.56469727 25.4151001 C46.83847764 25.34651798 46.83847764 25.34651798 48.61401367 23.16113281 C48.94734701 20.66113281 48.94734701 20.66113281 48.61401367 18.16113281 C46.14375778 15.69087692 45.42883482 15.90514362 42.02832031 15.88647461 C41.07715836 15.8769426 40.1259964 15.86741058 39.14601135 15.85758972 C38.11580368 15.85850113 37.08559601 15.85941254 36.02416992 15.86035156 C34.96870468 15.85606644 33.91323944 15.85178131 32.82579041 15.84736633 C30.59057331 15.84161576 28.35533749 15.84112809 26.12011719 15.84545898 C22.69393062 15.84861676 19.26860887 15.82517576 15.8425293 15.79980469 C13.6739106 15.79753162 11.50528957 15.79682823 9.33666992 15.79785156 C8.30848648 15.78864182 7.28030304 15.77943207 6.22096252 15.76994324 C5.26664841 15.77617203 4.31233429 15.78240082 3.32910156 15.78881836 C2.06907066 15.78787422 2.06907066 15.78787422 0.78358459 15.78691101 C-1.87435474 16.24536979 -2.79205126 17.01694241 -4.38598633 19.16113281 Z " fill="#000000" transform="translate(125.385986328125,441.8388671875)"/>
<path d="M0 0 C2.96328619 2.05150582 3.81472499 3.25889995 4.6875 6.75 C2.77879485 15.77296981 -8.1576009 23.30422619 -14.55078125 29.68359375 C-15.65714347 30.79063089 -16.76335731 31.89781634 -17.86943054 33.00514221 C-20.17150757 35.30868363 -22.47535883 37.61043126 -24.78051758 39.91088867 C-27.73743375 42.86206783 -30.6897831 45.81776876 -33.64085102 48.77479458 C-35.91665001 51.05419902 -38.19481516 53.33122651 -40.47371483 55.60753059 C-41.56412365 56.69727218 -42.6537897 57.78775751 -43.74270058 58.8789959 C-45.25746145 60.39628736 -46.77537469 61.91035198 -48.29418945 63.42358398 C-49.15687943 64.28547836 -50.0195694 65.14737274 -50.90840149 66.03538513 C-53.57200518 68.53727801 -54.55880734 68.94525566 -58.22680664 69.40039062 C-63.00607703 68.89324061 -65.14455706 66.88712425 -68.37109375 63.59375 C-68.93828629 63.03562622 -69.50547882 62.47750244 -70.08985901 61.90246582 C-71.28075468 60.72068905 -72.4628401 59.52997541 -73.63647461 58.33105469 C-75.43092172 56.50668796 -77.26176234 54.72582678 -79.09960938 52.9453125 C-80.25502172 51.78886869 -81.40809943 50.63008664 -82.55859375 49.46875 C-83.10535263 48.94132202 -83.65211151 48.41389404 -84.21543884 47.8704834 C-87.04359069 44.91743859 -88.34793958 42.91157368 -88.47290039 38.75195312 C-88 35 -88 35 -85.875 32.5 C-82.49137618 30.73463105 -80.77429304 30.58482777 -77 31 C-74.5078125 32.6875 -74.5078125 32.6875 -72.125 35 C-71.27421875 35.81339844 -70.4234375 36.62679687 -69.546875 37.46484375 C-68.28617188 38.71974609 -68.28617188 38.71974609 -67 40 C-66.20078125 40.78503906 -65.4015625 41.57007813 -64.578125 42.37890625 C-62.70270818 44.23769703 -60.843763 46.10988541 -59 48 C-55.39094754 46.47402977 -53.10030294 44.33700347 -50.35498047 41.56616211 C-49.44078339 40.64858627 -48.5265863 39.73101044 -47.58468628 38.78562927 C-46.59548822 37.7828988 -45.60632273 36.7801362 -44.6171875 35.77734375 C-43.59687526 34.75075843 -42.57604438 33.72468834 -41.55471802 32.69911194 C-38.87155517 30.00266562 -36.1940218 27.30070402 -33.51806641 24.59710693 C-29.22910096 20.26496505 -24.93334977 15.93957724 -20.63437271 11.61737251 C-19.13298594 10.1057499 -17.63505022 8.59076815 -16.13742065 7.07542419 C-15.22952789 6.16100052 -14.32163513 5.24657684 -13.38623047 4.30444336 C-12.58555145 3.49551132 -11.78487244 2.68657928 -10.95993042 1.85313416 C-7.24936845 -1.65523995 -4.89087621 -1.09623088 0 0 Z " fill="#000000" transform="translate(190,256)"/>
</svg>
