<svg width="24" height="24" viewBox="0 0 24 24" fill="none" xmlns="http://www.w3.org/2000/svg">
<g clip-path="url(#clip0_2079_41917)">
<path d="M13.0476 19.1429H11.9524C11.6619 19.1429 11.3833 19.2633 11.1779 19.4776C10.9725 19.6919 10.8571 19.9826 10.8571 20.2857C10.8571 20.5888 10.9725 20.8795 11.1779 21.0938C11.3833 21.3082 11.6619 21.4286 11.9524 21.4286H13.0476C13.3381 21.4286 13.6167 21.3082 13.8221 21.0938C14.0275 20.8795 14.1429 20.5888 14.1429 20.2857C14.1429 19.9826 14.0275 19.6919 13.8221 19.4776C13.6167 19.2633 13.3381 19.1429 13.0476 19.1429ZM13.0476 14.5714H11.9524C11.6619 14.5714 11.3833 14.6918 11.1779 14.9062C10.9725 15.1205 10.8571 15.4112 10.8571 15.7143C10.8571 16.0174 10.9725 16.3081 11.1779 16.5224C11.3833 16.7367 11.6619 16.8571 11.9524 16.8571H13.0476C13.3381 16.8571 13.6167 16.7367 13.8221 16.5224C14.0275 16.3081 14.1429 16.0174 14.1429 15.7143C14.1429 15.4112 14.0275 15.1205 13.8221 14.9062C13.6167 14.6918 13.3381 14.5714 13.0476 14.5714ZM7.57143 19.1429H6.47619C6.18572 19.1429 5.90714 19.2633 5.70174 19.4776C5.49634 19.6919 5.38095 19.9826 5.38095 20.2857C5.38095 20.5888 5.49634 20.8795 5.70174 21.0938C5.90714 21.3082 6.18572 21.4286 6.47619 21.4286H7.57143C7.8619 21.4286 8.14048 21.3082 8.34588 21.0938C8.55128 20.8795 8.66667 20.5888 8.66667 20.2857C8.66667 19.9826 8.55128 19.6919 8.34588 19.4776C8.14048 19.2633 7.8619 19.1429 7.57143 19.1429ZM7.57143 14.5714H6.47619C6.18572 14.5714 5.90714 14.6918 5.70174 14.9062C5.49634 15.1205 5.38095 15.4112 5.38095 15.7143C5.38095 16.0174 5.49634 16.3081 5.70174 16.5224C5.90714 16.7367 6.18572 16.8571 6.47619 16.8571H7.57143C7.8619 16.8571 8.14048 16.7367 8.34588 16.5224C8.55128 16.3081 8.66667 16.0174 8.66667 15.7143C8.66667 15.4112 8.55128 15.1205 8.34588 14.9062C8.14048 14.6918 7.8619 14.5714 7.57143 14.5714ZM22.9048 7.71429H19.619V3.14286C19.619 2.83975 19.5037 2.54906 19.2983 2.33474C19.0929 2.12041 18.8143 2 18.5238 2H6.47619C6.18572 2 5.90714 2.12041 5.70174 2.33474C5.49634 2.54906 5.38095 2.83975 5.38095 3.14286V7.71429H2.09524C1.80476 7.71429 1.52618 7.83469 1.32079 8.04902C1.11539 8.26335 1 8.55404 1 8.85714V24.8571C1 25.1602 1.11539 25.4509 1.32079 25.6653C1.52618 25.8796 1.80476 26 2.09524 26H22.9048C23.1952 26 23.4738 25.8796 23.6792 25.6653C23.8846 25.4509 24 25.1602 24 24.8571V8.85714C24 8.55404 23.8846 8.26335 23.6792 8.04902C23.4738 7.83469 23.1952 7.71429 22.9048 7.71429ZM21.8095 23.7143H3.19048V10H6.47619C6.76667 10 7.04524 9.87959 7.25064 9.66527C7.45604 9.45094 7.57143 9.16025 7.57143 8.85714V4.28571H17.4286V8.85714C17.4286 9.16025 17.544 9.45094 17.7494 9.66527C17.9548 9.87959 18.2333 10 18.5238 10H21.8095V23.7143ZM17.4286 14.5714C17.1381 14.5714 16.8595 14.6918 16.6541 14.9062C16.4487 15.1205 16.3333 15.4112 16.3333 15.7143C16.3333 16.0174 16.4487 16.3081 16.6541 16.5224C16.8595 16.7367 17.1381 16.8571 17.4286 16.8571H18.5238C18.8143 16.8571 19.0929 16.7367 19.2983 16.5224C19.5037 16.3081 19.619 16.0174 19.619 15.7143C19.619 15.4112 19.5037 15.1205 19.2983 14.9062C19.0929 14.6918 18.8143 14.5714 18.5238 14.5714H17.4286ZM14.1429 8.28571H13.5952V7.71429C13.5952 7.41118 13.4798 7.12049 13.2745 6.90616C13.0691 6.69184 12.7905 6.57143 12.5 6.57143C12.2095 6.57143 11.9309 6.69184 11.7255 6.90616C11.5202 7.12049 11.4048 7.41118 11.4048 7.71429V8.28571H10.8571C10.5667 8.28571 10.2881 8.40612 10.0827 8.62045C9.8773 8.83478 9.7619 9.12547 9.7619 9.42857C9.7619 9.73168 9.8773 10.0224 10.0827 10.2367C10.2881 10.451 10.5667 10.5714 10.8571 10.5714H11.4048V11.1429C11.4048 11.446 11.5202 11.7367 11.7255 11.951C11.9309 12.1653 12.2095 12.2857 12.5 12.2857C12.7905 12.2857 13.0691 12.1653 13.2745 11.951C13.4798 11.7367 13.5952 11.446 13.5952 11.1429V10.5714H14.1429C14.4333 10.5714 14.7119 10.451 14.9173 10.2367C15.1227 10.0224 15.2381 9.73168 15.2381 9.42857C15.2381 9.12547 15.1227 8.83478 14.9173 8.62045C14.7119 8.40612 14.4333 8.28571 14.1429 8.28571ZM18.5238 19.1429H17.4286C17.1381 19.1429 16.8595 19.2633 16.6541 19.4776C16.4487 19.6919 16.3333 19.9826 16.3333 20.2857C16.3333 20.5888 16.4487 20.8795 16.6541 21.0938C16.8595 21.3082 17.1381 21.4286 17.4286 21.4286H18.5238C18.8143 21.4286 19.0929 21.3082 19.2983 21.0938C19.5037 20.8795 19.619 20.5888 19.619 20.2857C19.619 19.9826 19.5037 19.6919 19.2983 19.4776C19.0929 19.2633 18.8143 19.1429 18.5238 19.1429Z" fill="#637381"/>
</g>
<defs>
<clipPath id="clip0_2079_41917">
<rect width="24" height="24" fill="white"/>
</clipPath>
</defs>
</svg>
