<?xml version="1.0" encoding="UTF-8"?>
<svg version="1.1" xmlns="http://www.w3.org/2000/svg" width="512" height="512">
<path d="M0 0 C147.84 0 295.68 0 448 0 C448 77.55 448 155.1 448 235 C412.69 235 377.38 235 341 235 C340.96261719 221.77550781 340.92523438 208.55101562 340.88671875 194.92578125 C340.85645385 186.56314043 340.8254383 178.20051365 340.79101562 169.83789062 C340.73648205 156.55543267 340.68507139 143.27301372 340.65356445 129.99047852 C340.63060612 120.31776017 340.59723233 110.64514376 340.55129844 100.97250623 C340.52733704 95.84988873 340.50862738 90.72737237 340.50238609 85.60470009 C340.49634845 80.78414987 340.47639642 75.9638585 340.44572449 71.14340401 C340.43692307 69.373322 340.43322602 67.60320619 340.43499184 65.83310318 C340.43664102 63.41730982 340.41997631 61.00230891 340.39872742 58.58662415 C340.40357499 57.88525387 340.40842257 57.18388359 340.41341704 56.46125966 C340.35080778 52.15182234 339.71308074 49.3826798 337 46 C333.34120543 43.11221668 328.72108994 43.71914248 324.27650452 43.73930359 C323.38640023 43.73547804 322.49629595 43.73165249 321.5792188 43.72771102 C318.59059461 43.71737555 315.60216234 43.72137422 312.61352539 43.7253418 C310.47329022 43.72099564 308.33305661 43.71581281 306.19282532 43.70985413 C300.37471271 43.69644282 294.55666499 43.69588781 288.73853993 43.69841743 C283.8849591 43.69948565 279.03139148 43.69460759 274.17781347 43.689812 C262.72961629 43.67870953 251.28145192 43.67828364 239.83325195 43.68432617 C228.0146389 43.69036819 216.19614484 43.67805078 204.37755209 43.6567561 C194.23734211 43.6391559 184.09717006 43.63313623 173.95694536 43.63639385 C167.89763082 43.63820931 161.83840116 43.63554428 155.77910042 43.62167931 C150.08196386 43.60913127 144.38501317 43.61101643 138.68787956 43.62409019 C136.5952638 43.62646209 134.50263509 43.62369944 132.41003418 43.61546707 C129.55663167 43.60504988 126.70385864 43.61305986 123.85047913 43.6257782 C123.01954508 43.61840391 122.18861104 43.61102963 121.33249718 43.60343188 C116.76082232 43.64639357 113.65707952 43.95230383 110 47 C107.40584265 50.44697421 107.71014493 54.32302471 107.7215271 58.46636963 C107.7157347 59.22116096 107.7099423 59.9759523 107.70397437 60.75361609 C107.6869624 63.28402948 107.68409685 65.8142606 107.68115234 68.34472656 C107.67185499 70.15810596 107.66168661 71.97148106 107.65071106 73.78485107 C107.62337526 78.71006786 107.60825103 83.63525599 107.59528303 88.56052876 C107.57966817 93.70686956 107.55287271 98.85315171 107.5272522 103.99945068 C107.48043528 113.74576964 107.44370526 123.4920996 107.41057932 133.23847365 C107.36523762 146.40799545 107.3043546 159.57744474 107.24433136 172.74690628 C107.15016395 193.4979012 107.07679598 214.24891669 107 235 C71.69 235 36.38 235 0 235 C0 157.45 0 79.9 0 0 Z " fill="#000000" transform="translate(32,192)"/>
<path d="M0 0 C1.13826233 -0.00571014 2.27652466 -0.01142029 3.44927979 -0.01730347 C4.69403076 -0.01842133 5.93878174 -0.01953918 7.22125244 -0.02069092 C8.5354718 -0.02565582 9.84969116 -0.03062073 11.20373535 -0.03573608 C14.80722601 -0.04883914 18.41069804 -0.05530109 22.01420879 -0.05974674 C24.26763597 -0.06268119 26.5210581 -0.06678673 28.77448273 -0.07125092 C35.83098315 -0.08492109 42.887472 -0.09458977 49.94398475 -0.09845281 C58.07829072 -0.10293082 66.21242844 -0.1204687 74.34668326 -0.1494534 C80.64153248 -0.17110185 86.93633446 -0.18115879 93.23122048 -0.18249393 C96.98738089 -0.1835398 100.74338302 -0.18940101 104.49950409 -0.20731354 C108.03556809 -0.22384884 111.57135577 -0.22592351 115.10744476 -0.21717453 C117.01433835 -0.21604276 118.92122298 -0.2297184 120.82806396 -0.243927 C128.68086696 -0.20588274 134.93104999 0.21518909 141.159729 5.45294189 C147.2812579 12.76476808 148.5643419 17.41809456 148.52325439 26.76446533 C148.52340042 27.63311722 148.52354645 28.5017691 148.5236969 29.39674377 C148.52300091 32.26446032 148.51522315 35.13211171 148.50738525 37.99981689 C148.50551996 39.98950159 148.50409658 41.97918675 148.50309753 43.96887207 C148.49928112 49.20330068 148.48945829 54.4377015 148.47839355 59.67211914 C148.46816062 65.01442082 148.46359588 70.35672699 148.45855713 75.69903564 C148.44783526 86.1795166 148.43076932 96.65997693 148.409729 107.14044189 C149.14449211 107.13675472 149.87925522 107.13306755 150.63628387 107.12926865 C168.53115893 107.04085451 186.42599027 106.97470162 204.32103729 106.93319321 C212.97503005 106.91258547 221.62887683 106.88449918 230.28277588 106.83868408 C237.82727677 106.79876142 245.37167191 106.77299608 252.9162755 106.76408792 C256.90954209 106.75888232 260.9025062 106.74668491 264.89567566 106.71752167 C268.65824908 106.69026651 272.42039693 106.68201709 276.18305969 106.68801117 C278.21407514 106.686395 280.24504479 106.66492525 282.27593994 106.64276123 C291.05199332 106.68223048 296.74480808 107.55696366 303.222229 113.89044189 C307.60541268 120.40260051 308.95197742 126.31849565 308.847229 134.01544189 C308.83893066 134.80338135 308.83063232 135.5913208 308.82208252 136.40313721 C308.61695667 143.48983392 307.59784876 149.54436368 302.7612915 154.99981689 C297.20941882 160.09105385 292.10810323 161.44023647 284.63284588 161.3977108 C283.85282153 161.40121687 283.07279719 161.40472295 282.26913574 161.40833527 C279.64565674 161.41766667 277.02239887 161.41272147 274.39891052 161.40786743 C272.50288678 161.41160281 270.60686457 161.41620388 268.71084481 161.42159808 C263.49284493 161.43385732 258.27490901 161.43356417 253.056898 161.43120933 C247.43236668 161.4308019 241.80785607 161.44183321 236.18333435 161.45132446 C225.16093193 161.46795139 214.1385509 161.47343477 203.11613699 161.47454922 C194.15846417 161.47549888 185.20079841 161.47960505 176.24312782 161.48595047 C154.99005582 161.50069975 133.73698975 161.51299971 112.48391247 161.51195335 C111.46423663 161.51190662 111.46423663 161.51190662 110.42396128 161.51185894 C106.97848644 161.51169272 103.53301161 161.51149464 100.08753677 161.51128952 C99.06110032 161.51122969 99.06110032 161.51122969 98.01392778 161.51116864 C96.63012442 161.51108777 95.24632105 161.51100417 93.86251769 161.51091786 C72.33224797 161.50969232 50.80204125 161.52470559 29.27178955 161.55206299 C5.08593118 161.58278202 -19.09987259 161.59997025 -43.28575534 161.59813654 C-56.0929101 161.59747197 -68.89999383 161.6029936 -81.70713234 161.62449265 C-92.61076309 161.64267871 -103.5142906 161.64707294 -114.41792993 161.6334738 C-119.98243523 161.62693121 -125.54674233 161.62687359 -131.11122894 161.6441803 C-136.20455043 161.65985884 -141.29751569 161.65710077 -146.39082821 161.63961203 C-148.2340137 161.63653063 -150.07722543 161.64021726 -151.92037997 161.65133218 C-154.42597279 161.66544189 -156.93031409 161.65487667 -159.43586445 161.63821983 C-160.151418 161.64815619 -160.86697156 161.65809255 -161.60420856 161.66833001 C-168.49393752 161.57150026 -173.55304506 159.13239614 -178.402771 154.39044189 C-182.78595468 147.87828328 -184.13251941 141.96238814 -184.027771 134.26544189 C-184.01947266 133.47750244 -184.01117432 132.68956299 -184.00262451 131.87774658 C-183.79749866 124.79104987 -182.77839076 118.73652011 -177.9418335 113.28106689 C-172.94511793 108.69892599 -168.34137738 106.88804241 -161.52220154 106.89993286 C-160.30369003 106.89718353 -159.08517853 106.8944342 -157.82974243 106.89160156 C-156.48779198 106.89867883 -155.14584252 106.90594844 -153.80389404 106.91339111 C-152.38445544 106.91395553 -150.96501626 106.91363807 -149.545578 106.9125061 C-145.698838 106.91193278 -141.85222298 106.92368373 -138.005512 106.93765402 C-133.98297495 106.95016481 -129.96043497 106.95133215 -125.93788147 106.95370483 C-118.32358741 106.95991857 -110.70935085 106.97632796 -103.0950821 106.99640381 C-94.42524802 107.0187661 -85.75541118 107.02975708 -77.08555543 107.03979468 C-59.25376137 107.06069428 -41.42202081 107.09586821 -23.590271 107.14044189 C-23.60026375 105.49459106 -23.60026375 105.49459106 -23.61045837 103.81549072 C-23.67136363 93.45784859 -23.71628884 83.10024296 -23.74570751 72.74246216 C-23.76134056 67.41785193 -23.78253578 62.09338667 -23.81658936 56.76885986 C-23.84926688 51.62711163 -23.86714176 46.48550254 -23.87490273 41.34365845 C-23.88043117 39.38532319 -23.89122683 37.42699525 -23.90746117 35.46871948 C-23.92934698 32.71850326 -23.93223327 29.96885667 -23.93084717 27.21856689 C-23.941633 26.41511337 -23.95241882 25.61165985 -23.96353149 24.78385925 C-23.92282564 17.2836947 -22.04175857 10.59192947 -16.590271 5.14044189 C-11.12095317 1.35792303 -6.56800503 0.01975824 0 0 Z M55.409729 36.14044189 C52.37961483 39.40357162 52.04937297 41.59718112 52.11676025 45.99981689 C52.12642822 47.11485596 52.13609619 48.22989502 52.14605713 49.37872314 C52.17119385 50.53759033 52.19633057 51.69645752 52.222229 52.89044189 C52.23576416 54.06477783 52.24929932 55.23911377 52.26324463 56.44903564 C52.2985812 59.34663487 52.34791922 62.24330616 52.409729 65.14044189 C51.35845825 65.11687622 51.35845825 65.11687622 50.28594971 65.09283447 C47.09812549 65.03031777 43.91043049 64.99139809 40.722229 64.95294189 C39.06803955 64.91523682 39.06803955 64.91523682 37.38043213 64.87677002 C35.7803833 64.86226807 35.7803833 64.86226807 34.14801025 64.84747314 C33.16872559 64.8317627 32.18944092 64.81605225 31.18048096 64.79986572 C27.1154521 65.29953224 24.50486356 67.0830706 21.597229 69.89044189 C19.86404792 73.17436396 19.96040267 75.48164174 20.409729 79.14044189 C22.21492372 82.26481737 23.57100763 83.75199562 26.847229 85.26934814 C31.85308008 86.49336655 36.65380625 86.35150899 41.784729 86.26544189 C42.80695557 86.25641846 43.82918213 86.24739502 44.88238525 86.23809814 C47.39174422 86.21464619 49.90061237 86.18182545 52.409729 86.14044189 C52.37830811 87.2371521 52.37830811 87.2371521 52.34625244 88.35601807 C52.26292587 91.6798519 52.21101569 95.00346573 52.159729 98.32794189 C52.12621338 99.47843018 52.09269775 100.62891846 52.0581665 101.81427002 C52.03883057 103.48199463 52.03883057 103.48199463 52.019104 105.18341064 C51.98768311 106.71517944 51.98768311 106.71517944 51.95562744 108.27789307 C52.52850998 111.88920906 53.90587075 113.52978262 56.409729 116.14044189 C59.61146154 117.74130816 62.93549959 117.63961279 66.409729 117.14044189 C69.21976361 115.34680279 70.91913368 114.12163254 72.409729 111.14044189 C72.494644 109.2540507 72.51692201 107.36465675 72.50738525 105.47637939 C72.5041626 104.35489502 72.50093994 103.23341064 72.49761963 102.07794189 C72.48924072 100.90231689 72.48086182 99.72669189 72.472229 98.51544189 C72.46771729 97.33208252 72.46320557 96.14872314 72.45855713 94.92950439 C72.44674367 91.99976683 72.43027158 89.07012917 72.409729 86.14044189 C73.3544104 86.16400757 73.3544104 86.16400757 74.31817627 86.18804932 C77.20276726 86.25084422 80.08721387 86.28957247 82.972229 86.32794189 C84.4581958 86.36564697 84.4581958 86.36564697 85.97418213 86.40411377 C92.72747108 86.4714223 98.12114252 86.11077807 103.347229 81.39044189 C104.92769027 78.04358275 104.91458164 75.80062348 104.409729 72.14044189 C102.38605005 68.66684737 100.29956077 66.43705248 96.409729 65.14044189 C94.56362368 65.05805021 92.71467737 65.03300831 90.86676025 65.04278564 C89.25704346 65.04761963 89.25704346 65.04761963 87.61480713 65.05255127 C86.49525635 65.06093018 85.37570557 65.06930908 84.222229 65.07794189 C82.52550049 65.08470947 82.52550049 65.08470947 80.79449463 65.09161377 C77.99951974 65.10340691 75.2046508 65.11986539 72.409729 65.14044189 C72.43591309 64.41453857 72.46209717 63.68863525 72.48907471 62.94073486 C72.5933971 59.63252649 72.65816772 56.32466469 72.722229 53.01544189 C72.7850708 51.30227783 72.7850708 51.30227783 72.84918213 49.55450439 C73.09881471 42.52083758 73.09881471 42.52083758 70.10894775 36.40216064 C65.09425052 32.20026527 60.49004678 32.04796369 55.409729 36.14044189 Z " fill="#000000" transform="translate(193.59027099609375,9.85955810546875)"/>
<path d="M0 0 C1.21857438 -0.00743927 1.21857438 -0.00743927 2.46176642 -0.01502883 C5.20741966 -0.02807093 7.95259341 -0.01957318 10.69825935 -0.01129913 C12.67719277 -0.01618397 14.65612332 -0.02237187 16.63504899 -0.02975702 C22.09141579 -0.04623144 27.54763883 -0.04382341 33.00402188 -0.03838205 C38.88143856 -0.03572105 44.75881609 -0.05022612 50.63621712 -0.06247711 C62.15788014 -0.08357291 73.67949289 -0.08806959 85.20117293 -0.08628923 C94.56271692 -0.08491751 103.92424626 -0.08872717 113.28578758 -0.09621429 C114.6295485 -0.09726462 115.97330942 -0.09831223 117.31707034 -0.09935716 C117.98408257 -0.0998765 118.65109479 -0.10039585 119.33831951 -0.10093093 C120.340644 -0.10171114 120.340644 -0.10171114 121.36321747 -0.10250711 C122.03253154 -0.10303111 122.70184561 -0.1035551 123.39144192 -0.10409497 C142.22379599 -0.11868409 161.05614443 -0.1269582 179.88850403 -0.12234497 C180.59885281 -0.12217302 181.3092016 -0.12200106 182.0410761 -0.1218239 C185.64160748 -0.12093497 189.24213883 -0.11999016 192.84267019 -0.11902589 C193.91533224 -0.11873934 193.91533224 -0.11873934 195.00966423 -0.118447 C196.45578752 -0.11805991 197.90191081 -0.11766958 199.34803409 -0.11727602 C221.85138401 -0.11130555 244.35463111 -0.12674395 266.85795784 -0.15888214 C292.12672959 -0.19493899 317.39543613 -0.21429448 342.66423523 -0.20934343 C345.35734057 -0.20887344 348.05044591 -0.20846319 350.74355125 -0.20809174 C351.73825468 -0.20793816 351.73825468 -0.20793816 352.75305312 -0.20778148 C362.77456454 -0.2065854 372.79599669 -0.21863591 382.81748772 -0.23723602 C394.21204818 -0.25820377 405.60645083 -0.26188621 417.00101767 -0.24293643 C422.81832911 -0.23375059 428.63534596 -0.23272258 434.45263481 -0.25329208 C439.77354576 -0.27189886 445.09391872 -0.26761478 450.41480853 -0.24474627 C452.34413629 -0.24053434 454.27350449 -0.24484668 456.20278965 -0.25834221 C458.81761422 -0.27539361 461.43053711 -0.2618943 464.04528809 -0.24050903 C465.17942789 -0.25892532 465.17942789 -0.25892532 466.3364796 -0.27771366 C470.26399451 -0.21021211 471.98472465 0.25230652 475.092435 2.73458624 C480.00563532 9.06357964 478.61886339 18.68807102 478.14848518 26.38311005 C476.72905032 36.01842636 471.38568853 43.08569651 463.94145393 49.13311005 C457.40679001 53.68886703 450.5490062 54.50715902 442.75200558 54.51453781 C441.6436493 54.51761676 441.6436493 54.51761676 440.51290199 54.52075791 C438.0293372 54.52642615 435.54582789 54.52497088 433.06225777 54.52355194 C431.26665581 54.52613568 429.47105443 54.52914886 427.67545384 54.53255534 C422.73496767 54.54062759 417.79449602 54.54241504 412.85400403 54.54315281 C407.52801188 54.54500297 402.20202729 54.55255011 396.87603951 54.55928802 C385.22727635 54.57287338 373.57851663 54.57889636 361.92974687 54.58329868 C354.6572069 54.58606071 347.38466827 54.59029799 340.11212921 54.59480286 C319.97939608 54.60699569 299.84666401 54.61729504 279.71392727 54.62067795 C278.42523999 54.62089751 277.13655271 54.62111708 275.8088143 54.6213433 C273.87114095 54.62167072 273.87114095 54.62167072 271.89432269 54.62200475 C269.27665094 54.62244821 266.6589792 54.62289478 264.04130745 54.62334442 C262.09362131 54.62367657 262.09362131 54.62367657 260.10658797 54.62401542 C239.06510188 54.62796376 218.02365042 54.64541883 196.98217771 54.66870394 C175.38291273 54.69241354 153.78366512 54.70487962 132.18438691 54.70604587 C120.05569936 54.70696284 107.92705693 54.71272072 95.79838181 54.73086548 C85.47087261 54.74626114 75.14342248 54.75139006 64.815904 54.74312738 C59.54686758 54.73921903 54.27795011 54.74015959 49.0089283 54.75418472 C44.18324878 54.76691228 39.35777774 54.7657361 34.53209855 54.75359401 C32.78847264 54.75163504 31.04483201 54.75472467 29.30122677 54.76343837 C15.39717114 54.82851213 4.71015649 53.82829603 -5.57417107 43.6838913 C-12.66572776 35.93022366 -14.03526583 27.58545367 -14.10151482 17.38311005 C-14.12213982 16.58904755 -14.14276482 15.79498505 -14.16401482 14.97686005 C-14.19552787 10.2499019 -13.88102998 7.23370876 -10.85151482 3.38311005 C-10.48396989 2.85218357 -10.11642496 2.32125709 -9.7377423 1.77424192 C-6.76232407 -0.42019071 -3.55651953 -0.03016128 0 0 Z " fill="#000000" transform="translate(23.85151481628418,447.6168899536133)"/>
<path d="M0 0 C28.38 0 56.76 0 86 0 C86 56.43 86 112.86 86 171 C57.62 171 29.24 171 0 171 C0 114.57 0 58.14 0 0 Z " fill="#000000" transform="translate(266,256)"/>
<path d="M0 0 C28.38 0 56.76 0 86 0 C86 56.43 86 112.86 86 171 C57.62 171 29.24 171 0 171 C0 114.57 0 58.14 0 0 Z " fill="#000000" transform="translate(160,256)"/>
</svg>
